<?xml version="1.0" encoding="utf-8"?>
<!-- Generator: Adobe Illustrator 27.5.0, SVG Export Plug-In . SVG Version: 6.00 Build 0)  -->
<svg version="1.1" xmlns="http://www.w3.org/2000/svg" xmlns:xlink="http://www.w3.org/1999/xlink" x="0px" y="0px"
	 viewBox="0 0 500 500" style="enable-background:new 0 0 500 500;" xml:space="preserve">
<g id="BACKGROUND">
	<rect style="fill:#21262B;" width="500" height="500"/>
	<radialGradient id="SVGID_1_" cx="245.1148" cy="195.8903" r="169.6028" gradientUnits="userSpaceOnUse">
		<stop  offset="0.0011" style="stop-color:#C500EA"/>
		<stop  offset="0.5586" style="stop-color:#67157D;stop-opacity:0.4412"/>
		<stop  offset="0.9988" style="stop-color:#20242B;stop-opacity:0"/>
	</radialGradient>
	<path style="opacity:0.22;fill:url(#SVGID_1_);" d="M245.115,25.716L245.115,25.716c-93.985,0-170.174,76.189-170.174,170.174v0
		c0,93.984,76.189,170.174,170.174,170.174h0c93.984,0,170.174-76.189,170.174-170.174v0
		C415.289,101.906,339.099,25.716,245.115,25.716z"/>
</g>
<g id="OBJECTS">
	<g>
		
			<text transform="matrix(1 0 0 1 113.4595 335.9228)" style="fill:#FFFFFF; font-family:'Montserrat-Bold'; font-size:45.7219px; letter-spacing:2;">Nexo Tech</text>
		
			<text transform="matrix(1 0 0 1 184.4829 362.8896)" style="fill:#F5F4F9; font-family:'Poppins-Regular'; font-size:16.5927px; letter-spacing:2;">LOGO DESIGN</text>
	</g>
	<g>
		
			<linearGradient id="SVGID_00000087412554044253926230000006696318530004308886_" gradientUnits="userSpaceOnUse" x1="294.158" y1="254.974" x2="296.5846" y2="187.0292">
			<stop  offset="0" style="stop-color:#3D0056"/>
			<stop  offset="0.9997" style="stop-color:#E33FC5"/>
		</linearGradient>
		<path style="fill:url(#SVGID_00000087412554044253926230000006696318530004308886_);" d="M305.374,162.16
			c-6.624,0-12.667,3.777-15.567,9.732c-4.195,8.615-10.463,21.486-15.798,32.44c-8.023,16.475-22.281,25.262-42.501,9.573
			c-0.103,0.125-0.207,0.246-0.308,0.372c10.892,10.681,31.496,30.901,39.153,38.505c23.398,23.238,42.883,9.275,52.95-11.398
			l38.581-79.225H305.374z"/>
		
			<linearGradient id="SVGID_00000151514625495246652540000010755688397732354456_" gradientUnits="userSpaceOnUse" x1="193.5298" y1="254.8868" x2="324.2148" y2="254.8868" gradientTransform="matrix(-1 0 0 -1 462.3302 468.3885)">
			<stop  offset="0" style="stop-color:#A553FF"/>
			<stop  offset="0.9994" style="stop-color:#AE38FF"/>
		</linearGradient>
		<path style="fill:url(#SVGID_00000151514625495246652540000010755688397732354456_);" d="M194.626,264.843
			c6.624,0,12.667-3.777,15.567-9.732c4.196-8.615,10.463-21.486,15.798-32.44c8.023-16.475,22.281-25.262,42.501-9.573
			c0.102-0.125,0.207-0.246,0.308-0.372c-10.892-10.681-31.496-30.901-39.153-38.505c-23.398-23.237-42.883-9.275-52.95,11.398
			l-38.581,79.225H194.626z"/>
		
			<linearGradient id="SVGID_00000050663005987147889270000013969282329220782472_" gradientUnits="userSpaceOnUse" x1="205.0633" y1="187.4124" x2="203.2178" y2="246.4668">
			<stop  offset="2.940000e-04" style="stop-color:#2A0056"/>
			<stop  offset="0.7711" style="stop-color:#8A0BFF;stop-opacity:0.5"/>
		</linearGradient>
		<path style="fill:url(#SVGID_00000050663005987147889270000013969282329220782472_);" d="M194.626,264.843
			c6.624,0,12.667-3.777,15.567-9.732c4.196-8.615,10.463-21.486,15.798-32.44c8.023-16.475,22.281-25.262,42.501-9.573
			c0.102-0.125,0.207-0.246,0.308-0.372c-10.892-10.681-31.496-30.901-39.153-38.505c-23.398-23.237-42.883-9.275-52.95,11.398
			l-38.581,79.225H194.626z"/>
		
			<linearGradient id="SVGID_00000140697525252164674850000007010999581999793565_" gradientUnits="userSpaceOnUse" x1="263.8596" y1="243.671" x2="282.847" y2="224.252">
			<stop  offset="0" style="stop-color:#DF38FF"/>
			<stop  offset="1" style="stop-color:#FF39FF"/>
		</linearGradient>
		<path style="fill:url(#SVGID_00000140697525252164674850000007010999581999793565_);" d="M270.353,252.783
			c23.398,23.238,42.883,9.275,52.95-11.398l21.428-44.002c-31.294,64.579-83.77,41.071-113.223,16.523
			c-0.103,0.125-0.207,0.246-0.308,0.372C242.091,224.959,262.696,245.179,270.353,252.783z"/>
		
			<linearGradient id="SVGID_00000005224693401692176920000005429237992300314011_" gradientUnits="userSpaceOnUse" x1="270.502" y1="250.849" x2="284.7997" y2="236.2263">
			<stop  offset="5.890000e-04" style="stop-color:#2A0056;stop-opacity:0"/>
			<stop  offset="1" style="stop-color:#8A0BFF"/>
		</linearGradient>
		<path style="opacity:0.32;fill:url(#SVGID_00000005224693401692176920000005429237992300314011_);" d="M245.115,227.932
			c9.73,9.553,20.24,19.887,25.238,24.851c23.398,23.238,42.883,9.275,52.95-11.398l10.988-22.564
			C307.668,254.445,271.588,244.972,245.115,227.932z"/>
		
			<linearGradient id="SVGID_00000115479255050807616690000000431832522646150022_" gradientUnits="userSpaceOnUse" x1="264.5676" y1="182.5957" x2="175.3902" y2="198.3685">
			<stop  offset="0" style="stop-color:#A553FF"/>
			<stop  offset="0.9994" style="stop-color:#AE38FF"/>
		</linearGradient>
		<path style="fill:url(#SVGID_00000115479255050807616690000000431832522646150022_);" d="M229.647,174.22
			c-23.398-23.237-42.883-9.275-52.95,11.398l-21.428,44.002c31.294-64.579,83.77-41.071,113.224-16.523
			c0.102-0.125,0.207-0.246,0.308-0.372C257.909,202.044,237.304,181.825,229.647,174.22z"/>
		
			<linearGradient id="SVGID_00000159434161000452162580000007768225747677718913_" gradientUnits="userSpaceOnUse" x1="173.788" y1="186.2556" x2="256.2924" y2="178.3692">
			<stop  offset="0" style="stop-color:#8A0BFF"/>
			<stop  offset="0.9994" style="stop-color:#2A0056;stop-opacity:0"/>
		</linearGradient>
		<path style="opacity:0.42;fill:url(#SVGID_00000159434161000452162580000007768225747677718913_);" d="M254.852,199.071
			c-9.73-9.553-20.24-19.887-25.238-24.851c-23.398-23.237-42.883-9.275-52.951,11.398l-10.988,22.563
			C192.298,172.559,228.378,182.032,254.852,199.071z"/>
	</g>
</g>
</svg>
