<svg width="224" height="104" viewBox="0 0 224 104" fill="none" xmlns="http://www.w3.org/2000/svg">
<path d="M167.258 0.00100708C160.634 0.00100708 154.591 3.778 151.691 9.733C147.496 18.348 141.228 31.219 135.893 42.173C127.87 58.648 113.612 67.435 93.392 51.746C93.289 51.871 93.185 51.992 93.084 52.118C103.976 62.799 124.58 83.019 132.237 90.623C155.635 113.861 175.12 99.898 185.187 79.225L223.768 0H167.258V0.00100708Z" fill="white"/>
<path d="M56.51 102.684C63.134 102.684 69.177 98.907 72.077 92.952C76.273 84.337 82.54 71.466 87.875 60.512C95.898 44.037 110.156 35.25 130.376 50.939C130.478 50.814 130.583 50.693 130.684 50.567C119.792 39.886 99.188 19.666 91.531 12.062C68.133 -11.175 48.648 2.78701 38.581 23.46L0 102.685H56.51V102.684Z" fill="white"/>
<path d="M132.237 90.624C155.635 113.862 175.12 99.899 185.187 79.226L206.615 35.224C175.321 99.803 122.845 76.295 93.392 51.747C93.289 51.872 93.185 51.993 93.084 52.119C103.975 62.8 124.58 83.02 132.237 90.624Z" fill="#3D22D6"/>
<path opacity="0.32" d="M118 66.111C127.73 75.664 138.24 85.998 143.238 90.962C166.636 114.2 186.121 100.237 196.188 79.564L207.176 57C180.553 92.624 144.473 83.151 118 66.111Z" fill="#8C00F8"/>
<path d="M91.531 12.061C68.133 -11.176 48.648 2.78599 38.581 23.459L17.153 67.461C48.447 2.88199 100.923 26.39 130.377 50.938C130.479 50.813 130.584 50.692 130.685 50.566C119.793 39.885 99.188 19.666 91.531 12.061Z" fill="white"/>
<path opacity="0.42" d="M116.736 36.912C107.006 27.359 96.496 17.025 91.498 12.061C68.1 -11.176 48.615 2.78599 38.547 23.459L27.559 46.022C54.182 10.4 90.262 19.873 116.736 36.912Z" fill="#1100FF"/>
</svg>
