<svg width="224" height="104" viewBox="0 0 224 104" fill="none" xmlns="http://www.w3.org/2000/svg">
<path d="M167.258 0.501007H167.758V0.5H222.968L184.737 79.0061C179.73 89.2895 172.421 97.8114 163.546 100.919C154.727 104.007 144.199 101.798 132.589 90.2682L132.237 90.623L132.589 90.2682C125.488 83.2158 107.253 65.315 95.9549 54.2332C104.932 60.3534 112.759 61.6354 119.37 59.4967C126.65 57.1419 132.303 50.6866 136.343 42.3919C141.678 31.4379 147.946 18.5669 152.141 9.95192C154.957 4.16896 160.825 0.501007 167.258 0.501007Z" fill="white" stroke="black"/>
<path d="M56.51 102.184H56.01V102.185H0.799625L39.0305 23.6789C44.0382 13.3955 51.3472 4.87385 60.2221 1.76667C69.0414 -1.32104 79.5693 0.887229 91.1787 12.4168C98.2803 19.4692 116.515 37.37 127.813 48.4518C118.836 42.3316 111.009 41.0497 104.398 43.1883C97.1179 45.5431 91.4648 51.9984 87.4255 60.2931C84.7807 65.7234 81.907 71.6246 79.1701 77.2449C76.386 82.9621 73.7434 88.3887 71.6275 92.7331L72.077 92.952L71.6275 92.7331C68.8112 98.516 62.9428 102.184 56.51 102.184Z" fill="white" stroke="black"/>
<path d="M132.237 90.624C155.635 113.862 175.12 99.899 185.187 79.226L206.615 35.224C175.321 99.803 122.845 76.295 93.392 51.747C93.289 51.872 93.185 51.993 93.084 52.119C103.975 62.8 124.58 83.02 132.237 90.624Z" fill="#3D22D6"/>
<path opacity="0.32" d="M118 66.111C127.73 75.664 138.24 85.998 143.238 90.962C166.636 114.2 186.121 100.237 196.188 79.564L207.176 57C180.553 92.624 144.473 83.151 118 66.111Z" fill="#8C00F8"/>
<path d="M91.531 12.061C68.133 -11.176 48.648 2.78599 38.581 23.459L17.153 67.461C48.447 2.88199 100.923 26.39 130.377 50.938C130.479 50.813 130.584 50.692 130.685 50.566C119.793 39.885 99.188 19.666 91.531 12.061Z" fill="white"/>
<path opacity="0.42" d="M116.736 36.912C107.006 27.359 96.496 17.025 91.498 12.061C68.1 -11.176 48.615 2.78599 38.547 23.459L27.559 46.022C54.182 10.4 90.262 19.873 116.736 36.912Z" fill="#1100FF"/>
</svg>
